<?xml version="1.0" standalone="no"?><!DOCTYPE svg PUBLIC "-//W3C//DTD SVG 1.1//EN" "http://www.w3.org/Graphics/SVG/1.1/DTD/svg11.dtd"><svg t="1728647590674" class="icon" viewBox="0 0 1024 1024" version="1.1" xmlns="http://www.w3.org/2000/svg" p-id="14863" xmlns:xlink="http://www.w3.org/1999/xlink" width="200" height="200"><path d="M270.788437 805.578383A226.25737 226.25737 0 0 1 44.111294 578.691354v-136.111229h90.600895v136.111229a136.076248 136.076248 0 0 0 136.076248 136.14621h662.890719a45.475353 45.475353 0 0 1 26.23578 82.310388l-317.627848 226.887029-52.471561-73.879958 202.190414-144.57664H270.788437z m0 0l481.339118-587.331671a226.92201 226.92201 0 0 1 227.026953 226.887029v136.111229h-90.950705v-135.971305a136.041267 136.041267 0 0 0-136.076248-136.111229H89.236837a45.475353 45.475353 0 0 1-26.235781-82.310388L380.279094-0.034981l52.821371 73.879958-202.190414 144.57664h521.217504z m0 0" p-id="14864" fill="#313440"></path></svg>