<?xml version="1.0" standalone="no"?><!DOCTYPE svg PUBLIC "-//W3C//DTD SVG 1.1//EN" "http://www.w3.org/Graphics/SVG/1.1/DTD/svg11.dtd"><svg t="1728642828573" class="icon" viewBox="0 0 1024 1024" version="1.1" xmlns="http://www.w3.org/2000/svg" p-id="7398" xmlns:xlink="http://www.w3.org/1999/xlink" width="200" height="200"><path d="M733.980066 0H0v1024h340.199336v-85.049834H85.049834V85.049834h616.611296l237.289036 209.222591v184.55814h85.049834V255.149502L733.980066 0z" fill="#313440" p-id="7399"></path><path d="M170.099668 171.800664h279.813953v85.049834H170.099668zM170.099668 372.518272h242.392026v85.049834H170.099668zM170.099668 572.385382h142.883721v85.049834H170.099668zM896.425249 686.352159a231.335548 231.335548 0 1 0-98.657807 189.66113l155.641196 137.780731 56.13289-63.787375-152.239202-135.229236a228.784053 228.784053 0 0 0 39.122923-128.42525zM665.089701 832.637874a146.285714 146.285714 0 1 1 146.285714-146.285715 146.285714 146.285714 0 0 1-146.285714 146.285715z" fill="#313440" p-id="7400"></path></svg>